/* XPM */
static char * icon_xpm[] = {
"48 48 2 1",
" 	c #FFFFFF",
".	c #000001",
"                        ........................",
"                        ........................",
"                        ........................",
"                        ........................",
"                        ........................",
"                        ........................",
"                        ........................",
"                        ........................",
"                        ........................",
"                        ........................",
"                        ........................",
"                        ........................",
"                        ........................",
"                        ........................",
"                        ........................",
"                        ........................",
"                        ........................",
"                        ........................",
"                        ........................",
"                        ........................",
"                        ........................",
"                        ........................",
"                        ........................",
"                        ........................",
"........................                        ",
"........................                        ",
"........................                        ",
"........................                        ",
"........................                        ",
"........................                        ",
"........................                        ",
"........................                        ",
"........................                        ",
"........................                        ",
"........................                        ",
"........................                        ",
"........................                        ",
"........................                        ",
"........................                        ",
"........................                        ",
"........................                        ",
"........................                        ",
"........................                        ",
"........................                        ",
"........................                        ",
"........................                        ",
"........................                        ",
"........................                        "};
